# xmcd CD database file
#
# Track frame offsets:
#	150
#	24336
#	45255
#	66650
#	87054
#	106855
#	132971
#	148348
#	174610
#	190301
#	211148
#	233427
#
# Disc length: 3314 seconds
#
# Revision: 0
# Processed by: cddbd v1.5.2PL0 Copyright (c) Steve Scherf et al.
# Submitted via: CDex 1.51
#
DISCID=9f0cf00c
DTITLE=Bonnie Raitt - Under The Falling Sky (2)
DYEAR=1973
DGENRE=Blues
TTITLE0=Love Me Like A Man
TTITLE1=You Got To Know How
TTITLE2=I Thought I Was A Child
TTITLE3=Under The Falling Sky
TTITLE4=Everybody's Crying Mercy
TTITLE5=Give It Up Or Let Me Go - band intros
TTITLE6=Stayed Too Long At The Fair
TTITLE7=I Feel The Same
TTITLE8=Guilty
TTITLE9=Women Be Wise
TTITLE10=Love Has No Pride
TTITLE11=Baby I Love You
EXTD=YEAR: 1973
EXTT0=
EXTT1=
EXTT2=
EXTT3=
EXTT4=
EXTT5=
EXTT6=
EXTT7=
EXTT8=
EXTT9=
EXTT10=
EXTT11=
PLAYORDER=
